<svg width="46" height="57" viewBox="0 0 46 57" fill="none" xmlns="http://www.w3.org/2000/svg">
<path d="M4.32007 4.17578H28.5714C36.5882 5.66159 39.5855 8.39619 42.4293 16.4458V53.4003H4.32007V4.17578Z" fill="#80FF80" fill-opacity="0.5"/>
<path d="M33.1907 1.00006H7.49585V50.2245H45.6051V12.9814C43.5056 6.09097 41.2121 3.12589 33.1907 1.00006Z" stroke="#104010" stroke-width="0.577413"/>
<path d="M26.6949 7.06281H1V56.2873H39.1093V19.0441C37.0098 12.1537 34.7163 9.18863 26.6949 7.06281Z" stroke="#104010" stroke-width="0.577413"/>
<path d="M16.7726 18.4727L21.7891 18.3064C22.2141 18.3064 22.5559 18.408 22.8146 18.6112C23.0733 18.796 23.2026 19.0547 23.2026 19.3873C23.2026 19.7199 23.0733 19.9878 22.8146 20.191C22.5559 20.3758 22.2141 20.4682 21.7891 20.4682L17.9089 20.3296C17.8165 24.487 17.7703 27.3602 17.7703 28.9492L17.9089 38.1232C17.9089 38.5481 17.8073 38.89 17.604 39.1487C17.4008 39.4073 17.1236 39.5367 16.7726 39.5367C16.4215 39.5367 16.1443 39.4073 15.9411 39.1487C15.7378 38.89 15.6362 38.5481 15.6362 38.1232L15.7748 28.9492C15.7748 27.3417 15.7286 24.4593 15.6362 20.3019L11.4511 20.4405C10.5642 20.4405 10.1208 20.0894 10.1208 19.3873C10.1208 18.6851 10.5642 18.3341 11.4511 18.3341L16.7726 18.4727ZM35.8172 36.6265C35.8172 37.2178 35.152 37.8737 33.8217 38.5943C32.5098 39.315 30.967 39.6753 29.1931 39.6753C26.6063 39.6753 24.463 38.6313 22.7631 36.5434C21.0632 34.437 20.2132 31.8779 20.2132 28.8661C20.2132 25.8358 21.0724 23.2767 22.7908 21.1888C24.5092 19.1009 26.6618 18.0569 29.2486 18.0569C30.7822 18.0569 32.1587 18.3433 33.3782 18.9161C34.5977 19.4889 35.2075 20.1356 35.2075 20.8562C35.2075 21.1519 35.1151 21.3828 34.9303 21.5491C34.764 21.7154 34.5238 21.7986 34.2097 21.7986C33.9141 21.7986 33.5538 21.6507 33.1288 21.3551C32.7223 21.0595 32.1957 20.7638 31.549 20.4682C30.9208 20.1541 30.154 19.997 29.2486 19.997C27.2715 19.997 25.6455 20.8747 24.3706 22.63C23.0957 24.3669 22.4582 26.4271 22.4582 28.8107C22.4582 31.1757 23.0957 33.2544 24.3706 35.0467C25.6455 36.839 27.2623 37.7352 29.2209 37.7352C30.1262 37.7352 30.9392 37.6428 31.6599 37.458C32.3989 37.2547 32.9533 37.0423 33.3228 36.8205C33.6923 36.5988 34.0342 36.3956 34.3483 36.2108C34.6624 36.0075 34.9026 35.9059 35.0689 35.9059C35.5678 35.9059 35.8172 36.1461 35.8172 36.6265Z" fill="#104010"/>
</svg>
